# xmcd
#
# Track frame offsets:
#	150
#	21202
#	38677
#	56905
#	75690
#	93190
#	111885
#	131525
#	149160
#	168295
#	188347
#	207255
#	225752
#	248095
#	266065
#	282692
#
# Disc length: 4034 seconds
#
# Revision: 5
# Processed by: cddbd v1.5.2PL0 Copyright (c) Steve Scherf et al.
# Submitted via: EasyCDDAExtractor 15.3.0.1
#
DISCID=dc0fc010
DTITLE=Ednita Nazario - Mas Grande Que Grande - 16 Exitos
DYEAR=2000
DGENRE=Latin
TTITLE0=Lo Que Son Las Cosas
TTITLE1=Quien Te Robo El Corazon
TTITLE2=Por Ti Me Casare
TTITLE3=Tres Deseos
TTITLE4=Un Corazon Hecho Pedazos
TTITLE5=Despues De Tanto
TTITLE6=Tanto Nos Amamos
TTITLE7=Eres Libre
TTITLE8=Como Antes
TTITLE9=Gata Sin Luna
TTITLE10=Te Sigo Esperando
TTITLE11=Que No Acabe El Amor
TTITLE12=Tu Sabes Bien
TTITLE13=Espiritu Libre
TTITLE14=Lloviendo Flores
TTITLE15=Quiero Que Me Hagas El Amor
EXTD=
EXTT0=
EXTT1=
EXTT2=
EXTT3=
EXTT4=
EXTT5=
EXTT6=
EXTT7=
EXTT8=
EXTT9=
EXTT10=
EXTT11=
EXTT12=
EXTT13=
EXTT14=
EXTT15=
PLAYORDER=
